<?xml version="1.0" encoding="utf-8"?>
<!-- Generator: Adobe Illustrator 26.0.3, SVG Export Plug-In . SVG Version: 6.00 Build 0)  -->
<svg version="1.0" id="Layer_1" xmlns="http://www.w3.org/2000/svg" xmlns:xlink="http://www.w3.org/1999/xlink" x="0px" y="0px"
	 viewBox="0 0 848.1 554.3" style="enable-background:new 0 0 848.1 554.3;" xml:space="preserve">
<style type="text/css">
	.st0{fill:#48337E;}
	.st1{fill:#D62A23;}
	.st2{fill:#AD1F1E;}
</style>
<path class="st0" d="M462.2,330V224.5h3.2V330H462.2z"/>
<path class="st0" d="M358,328.5h-21.6c0-14.1,0-28.3,0-42.4c0.1-3.8-0.8-7.6-2.7-10.9c-1.8-2.6-4.4-4.4-7.5-5.1
	c-3.1-0.7-6.3-0.8-9.5-0.5c-1.1,0.1-2.3,0.2-3.4,0.4c-1,0.2-2,0.5-3,0.8c-1,0.3-2,0.7-3,1.1v56.6h-21.7v-70.1
	c1.3-0.7,2.7-1.2,4.1-1.8c2.7-1,5.4-1.9,8.2-2.6c3.3-0.8,6.6-1.5,9.9-2c5.1-0.7,10.2-1,15.3-0.9c5.1,0.1,10.1,1,14.9,2.7
	c4.2,1.5,8.1,3.8,11.4,6.9c2.8,2.7,5,6.1,6.4,9.7c1.4,3.7,2.1,7.6,2.1,11.6c0,15.4,0,30.9,0,46.3L358,328.5z"/>
<path class="st1" d="M107.4,240.6c-0.8-2.5-1.7-5-2.6-7.5c-0.7-2.6-3.5-4.1-6-3.3c-0.5,0.2-1.1,0.4-1.5,0.7c-0.4,0.3-0.7,0.6-1,1
	c-0.2,0.4-0.4,0.8-0.5,1.1l-0.1-0.1c0.1-0.4,0.3-0.8,0.5-1.2c1.1-2.3,2.9-4.3,5.2-5.5c0.6-0.3,1.2-0.6,1.9-0.8
	c0.7-0.2,1.4-0.4,2.2-0.6c0.6-0.1,1.3-0.2,1.9-0.2c2,0,4.1,0.4,5.9,1.3c1.8,0.9,3.3,2.2,4.5,3.8c0.7,1,1.3,2.1,1.7,3.3
	c2,5.8,4,11.5,6,17.3c0.1,0.4,0.3,0.8,0.4,1.3c6,0.1,12,0.2,18,0.4c0.4,0,0.7,0,1.1,0c0,0,0.1,0,0.1,0.1l-0.1,0.1
	c-0.2,0.3-0.3,0.6-0.5,0.9c-0.2,0.3-0.5,0.8-0.6,1.1c0,0.1-0.1,0.3-0.2,0.4s-0.3,0.4-0.4,0.5c-0.2,0.3-0.5,0.8-0.6,1.1
	c0,0.1-0.1,0.3-0.2,0.4c0,0.1-0.3,0.4-0.4,0.5c-1.4,2.8-3.2,5.8-4.9,8.5c0.5,0,1-0.1,1.6,0c0,0,0,0,0,0.1c-5-0.1-10-0.1-15-0.3
	c-2.3-0.2-4.4-1-6.2-2.4c-2.1-1.6-3.7-3.7-4.5-6.2c-1.8-5.2-3.6-10.4-5.4-15.5C107.5,240.7,107.4,240.7,107.4,240.6z"/>
<path class="st0" d="M691.8,255.6c0-8.7,0-17.4,0-26c0-1.1,0.6-2.2,1.6-2.7c0.6-0.2,1.2-0.4,1.9-0.3c3,0,6,0,8.9,0
	c2.8-0.1,5.6,1,7.5,3c2.1,2.7,2.1,6.5,0,9.2c-0.6,0.8-1.4,1.4-2.3,1.8c1.9,0.5,3.4,1.7,4.4,3.4c0.5,0.8,0.7,1.7,0.8,2.6
	c0.2,1.8-0.2,3.6-1.2,5.1c-1.4,1.9-3.5,3.2-5.8,3.6c-0.5,0.1-1.1,0.2-1.6,0.2C701.3,255.7,696.5,255.6,691.8,255.6z M697.8,250.7
	c2.5,0.2,5,0.1,7.5-0.1c0.4-0.1,0.7-0.2,1.1-0.3c0.9-0.4,1.6-1.2,1.9-2.1c0.4-1.3,0.1-2.8-0.8-3.8c-0.6-0.6-1.5-1-2.4-1.1
	c-2.4-0.1-4.8,0-7.2,0L697.8,250.7z M697.8,238.4c2,0,3.9,0,5.8,0c1.4,0,2.7-0.8,3.3-2c0.5-0.9,0.5-2.1,0-3
	c-0.5-1.1-1.5-1.8-2.7-1.8c-2.1-0.1-4.3-0.2-6.4-0.1L697.8,238.4z"/>
<path class="st0" d="M484.8,255.5h-5.9c0-8.6,0-17.1,0-25.7c0-1.6,0.5-2.9,2.2-3.3c0.3-0.1,0.6-0.1,0.9-0.1c3.2,0,6.5-0.1,9.7,0
	c0.6,0,1.2,0.1,1.8,0.2c1.8,0.3,3.5,1.2,4.7,2.5c0.8,0.9,1.5,1.9,1.9,3c0.2,0.6,0.4,1.3,0.5,1.9c0.1,0.6,0.2,1.2,0.2,1.8
	c0.2,2.7-0.8,5.4-2.7,7.4c-1,0.9-2.2,1.6-3.4,2.1c-0.7,0.2-1.3,0.4-2,0.5c-0.6,0.1-1.3,0.2-1.9,0.2c-1.1,0.1-2.2,0.1-3.3,0
	c-0.9-0.1-1.7-0.2-2.6-0.3v9.6L484.8,255.5z M487.1,241.4c0.9,0.1,1.8,0.1,2.6,0c2.1-0.2,4.1-1.3,4.7-3.4c0.3-0.9,0.3-1.9,0.1-2.9
	c-0.2-1.1-0.8-2.1-1.7-2.8c-1.1-0.6-2.4-1-3.6-0.9c-1.4,0-2.8,0-4.2,0v9.7C485.6,241.2,486.3,241.3,487.1,241.4z"/>
<path class="st0" d="M259.7,247.8c-3.9-0.5-7.3-2.9-9.1-6.4c-0.7-1.4-1.1-2.9-1.2-4.4c-0.2-2.2,0.3-4.5,1.4-6.5
	c1.6-2.7,4.1-4.8,7.1-5.6c3.1-0.9,6.5-0.6,9.4,0.9c2.8,1.5,4.9,4,5.8,7c0.9,3.1,0.5,6.3-1.1,9.1c-1.7,2.8-4.4,4.8-7.6,5.6
	C262.9,247.9,261.3,248,259.7,247.8z"/>
<path class="st0" d="M579.8,255.6v-12.5c0.2-1.5-0.4-3-1.5-4.1c-1.2-0.8-2.7-1-4.1-0.6c-2.2,0.6-3,2.9-3,5c0,4.1,0,8.1,0,12.2h-5.9
	c0-4.1,0-8.3,0-12.4c0.1-1.6-0.5-3.2-1.7-4.2c-1.3-0.9-3.6-0.8-5-0.6c-0.6,0.1-1.2,0.3-1.7,0.6v16.6h-5.9v-20.3c2.8-1.3,5.9-1.9,9-2
	c1.9-0.1,3.8,0.1,5.6,0.7c1.5,0.5,2.7,1.4,3.7,2.6c1.4-1.7,3.4-2.9,5.5-3.2c2.5-0.4,5,0,7.2,1.1c1.9,1.1,3.3,3,3.6,5.2
	c0.1,0.5,0.1,1.1,0.1,1.6c0,4.7,0,9.4,0,14.1L579.8,255.6z"/>
<path class="st1" d="M63.6,275.5c0.1,0,0.1,0,0.2,0c0,0,0,0,0.1,0c0.2-0.2,0.4-0.3,0.7-0.3l0.1-0.1h0.1c0.2-0.1,0.5-0.3,0.8-0.4
	l0.1-0.1c0.1,0,0.1,0,0.2,0c2.3-1.1,4.6-2.2,7-3.3c0,0,0,0,0.1-0.1c0,0,0.1,0,0.1,0c0.2-0.1,0.5-0.3,0.8-0.4c0,0,0,0,0.1-0.1h0.2
	c0.7-0.4,1.3-0.6,2-1c0.1,0,0.1,0,0.2,0l0.1-0.1h0.1c0.2-0.1,0.5-0.3,0.8-0.4c0,0,0,0,0.1-0.1h0.2c0.2-0.1,0.3-0.2,0.5-0.2
	c0-0.1,0-0.1,0-0.2l8.9,6.8c1.2,0.9,2.2,2,3.1,3.3c1.2,1.9,1.9,4.1,2,6.4c0,1.5-0.2,2.9-0.6,4.3c-1.6,5.3-3.2,10.6-4.8,15.9l0,0
	c-0.8,2.6-1.6,5.2-2.3,7.7c-0.6,1.7-0.2,3.5,0.9,4.8c0.8,0.9,1.9,1.5,3.1,1.6c0.8,0.1,1.6,0,2.4-0.3h0.1c-0.4,0.3-0.9,0.5-1.4,0.7
	c-2.8,1.2-5.9,1.4-8.8,0.5c-2.2-0.7-4.1-2-5.6-3.7c-1.5-1.6-2.5-3.6-2.9-5.7c-0.1-0.5-0.2-1.1-0.2-1.6c-0.1-1.3,0-2.6,0.3-3.8
	c0.1-0.5,0.2-0.9,0.4-1.4c1.9-6.1,3.7-12.1,5.5-18.2l-0.3-0.2L63.6,275.5z"/>
<path class="st0" d="M665.5,256c-1.9-0.2-3.9-0.7-5.7-1.5c-0.8-0.3-1.5-0.7-2.1-1.2l2.3-4c2.1,1.3,4.5,2.1,7,2.3
	c1.5,0.1,3.4,0.1,4.7-0.7c0.6-0.5,0.8-1.3,0.6-2c-0.3-0.9-1.4-1.2-2.2-1.3c-2.6-0.5-5.4-0.5-7.9-1.4c-2.1-0.7-3.6-2.4-3.9-4.5
	c-0.7-3.5,1.6-6.9,5.1-7.6c3.8-0.9,7.8-0.8,11.6,0.5c1.2,0.3,2.2,1.2,2.6,2.4c0.1,0.6,0,1.2-0.3,1.8c-0.4,0.6-0.9,1.1-1.5,1.5
	c-0.7-0.6-1.5-1.1-2.3-1.5c-1.8-0.7-3.7-1-5.6-0.9c-1,0-1.9,0.2-2.8,0.6c-0.7,0.4-1.1,1.3-0.8,2.1c0.3,0.9,1.6,1.2,2.4,1.3
	c2,0.3,4.1,0.5,6.1,0.9c1.8,0.3,3.5,1.1,4.7,2.5c1.2,1.6,1.5,3.7,0.9,5.7c-0.8,2.3-2.7,4.1-5,4.7C670.7,256.3,668.1,256.4,665.5,256
	z"/>
<path class="st0" d="M757.7,255.6c0-4.1,0-8.2,0-12.3c0.1-1.3-0.4-2.7-1.2-3.7c-1.3-1.5-4-1.5-5.8-1.2c-0.7,0.1-1.4,0.3-2,0.6v16.6
	h-5.9v-20.3c3.4-1.4,7.1-2.1,10.8-2c2.8,0,5.5,0.9,7.6,2.8c1.3,1.3,2.1,3,2.3,4.9c0.1,0.4,0.1,0.9,0.1,1.3c0,4.4,0,8.8,0,13.2v0.1
	L757.7,255.6z"/>
<path class="st0" d="M600.2,256.3c-2.9-0.1-5.7-1.2-7.8-3.3c-1-1-1.7-2.2-2.1-3.5c-0.7-2.3-0.9-4.7-0.5-7.1c0.5-3,2.2-5.7,4.7-7.4
	c2.6-1.5,5.6-2.1,8.5-1.7c2.5,0.2,4.8,1.5,6.4,3.5c1.3,1.8,1.8,4.1,1.4,6.3c-0.2,0.9-0.6,1.8-1.2,2.5c-1.2,1.1-2.8,1.7-4.5,1.7
	c-3.1,0.1-6.3,0-9.4,0c0.5,1.9,2,3.4,3.9,3.8c1.4,0.3,2.9,0.4,4.3,0.2c1.4-0.1,2.8-0.4,4.1-0.9l1.6,4.2c-1.7,0.7-3.5,1.2-5.3,1.4
	C603.1,256.3,601.6,256.3,600.2,256.3z M595.6,243.4c2.7,0,5.3,0,8,0c0.4,0,0.8-0.1,1.1-0.3c0.7-0.4,0.8-1.4,0.8-2.1
	c-0.1-1.7-1.3-3.2-3-3.5c-1.5-0.4-3-0.1-4.3,0.8C596.6,239.5,595.6,241.4,595.6,243.4z"/>
<path class="st0" d="M648.2,256.2c-1.4,0-2.8-0.5-4-1.3c-1.5-1.2-2.5-3-2.6-5c-0.4-3.3-0.1-7.7-0.1-11.1c-0.9,0.1-1.9,0-2.8-0.2
	c-1.1-0.4-1.3-1.8-1.1-2.9c0.1-0.6,0.3-1.2,0.5-1.8h3.4v-3.8c0-1.6,1.1-2.4,2.6-2.4c1.1,0,2.2,0.1,3.3,0.5v5.8h4.5
	c0.9-0.1,1.7,0.3,2.2,1c0.3,0.7,0.4,1.4,0.3,2.2c-0.1,0.6-0.3,1.1-0.5,1.7h-6.5c0,3.2,0,6.3,0,9.5c-0.1,0.8,0.2,1.6,0.8,2.3
	c0.4,0.3,0.8,0.5,1.2,0.6c1.5,0.3,3.1-0.1,4.4-1l2.2,3.5c-1.5,1.3-3.5,2.1-5.5,2.3C649.7,256.2,648.9,256.2,648.2,256.2z"/>
<path class="st0" d="M528.9,264c-1.6-0.1-3.2-0.5-4.6-1.2l1.7-4.2c1.5,0.8,3.2,0.8,4.7,0.2c0.6-0.4,1.2-0.9,1.5-1.6
	c0.7-1.1,1.4-2.3,1.9-3.5c-1.8-3-3.6-6.1-5.3-9.1c-1.1-1.9-2.2-3.8-3.1-5.7c-0.7-1.1-0.8-2.5-0.2-3.6c0.4-0.7,1.2-1.1,2-1.2
	c0.6-0.1,1.3-0.1,1.9,0c0.4,0.1,0.8,0.2,1.2,0.4c0.1,0,0.1,0,0.1,0.1c2,4.4,4.1,8.8,6.4,13c1.6-3.6,3.1-7.3,4.6-10.9
	c0.3-0.9,0.9-1.7,1.6-2.3c1.2-0.6,2.6-0.6,3.9,0c0.4,0.2,0.8,0.5,1.1,0.8c-0.2,0.7-0.5,1.5-0.8,2.2c-1.5,3.9-3.2,7.7-4.9,11.5
	c-1.2,2.8-2.6,5.5-4.1,8.1c-0.9,1.9-2.2,3.6-3.8,5.1c-1.3,1.1-2.8,1.7-4.4,1.9C529.9,264,529.4,264,528.9,264z"/>
<path class="st0" d="M272.2,328.6h-21.6c0-21.6,0-43.2,0-64.7c0-1.2,0.1-2.4,0.3-3.7c0.3-1.8,1.3-3.3,2.8-4.3
	c1.4-0.9,2.9-1.5,4.6-1.8c3.2-0.5,6.5-0.4,9.7,0.4c1,0.2,2,0.5,3,0.8c0.5,0.1,0.9,0.3,1.3,0.5v72.8H272.2z"/>
<path class="st0" d="M730.8,283h-5.3v-5.4h5.5v5.4H730.8z"/>
<path class="st0" d="M653.4,329.9l-8-7l-1.7,1l-2.9-3l4.8-2.9l11.4,9.6L653.4,329.9L653.4,329.9z"/>
<path class="st0" d="M783.7,255.6c-1.4-1.9-2.9-3.6-4.5-5.3c-1.4-1.5-2.9-2.9-4.5-4.2v9.5h-5.9c0-9.6,0-19.1,0-28.7
	c0-1.8,1.4-2.5,3-2.5c1,0,2,0.2,2.9,0.5c0,5.6,0,11.3,0,16.9v0.2c2.6-2.1,5-4.4,7.6-6.5c1.1-1.1,2.7-1.7,4.3-1.5
	c1.3,0.1,2.5,0.8,3.2,1.9l0.1,0.1c-0.6,0.6-1.2,1.1-1.8,1.6c-2.4,2.1-4.9,4.1-7.5,6.1c2,1.6,3.8,3.4,5.5,5.4c1.8,2,3.5,4.1,5,6.4
	L783.7,255.6z"/>
<path class="st0" d="M178.1,328.6h-0.3c0-26,0-52.1,0-78.2c0-2.5,0.5-4.9,1.4-7.2c1.5-4.1,4.4-7.7,8.1-10.1c4-2.5,8.5-4,13.1-4.4
	c1.8-0.2,3.6-0.3,5.4-0.3c8.8,0,17.7,0,26.5,0c1.7,0,3.4,0.3,5,0.8c2.1,0.7,3.7,2.3,4.4,4.4c0.9,2.8,1,5.9,0.3,8.8
	c-0.4,1.7-1,3.3-1.8,4.8c-0.2,0.3-0.4,0.7-0.6,1h-29.4c-2-0.1-4,0.3-5.8,1.2c-1.7,0.8-3,2.2-3.7,4c-0.3,0.7-0.4,1.5-0.5,2.3
	c0,4.6,0,9.3,0,13.9h27.8c1.9,0,3.9,0.3,5.7,1c2.2,1,3.8,3,4.3,5.3c0.6,2.8,0.5,5.7-0.2,8.5c-0.3,1.1-0.7,2.2-1.2,3.2
	c-0.3,0.7-0.6,1.3-1,1.9h-35.4v39.2H178.1z"/>
<path class="st0" d="M727,256.2c-2.4,0.1-4.7-0.4-6.8-1.4c-1.1-0.6-2-1.5-2.5-2.7c-0.5-1.6-0.6-3.3-0.2-4.9c0.3-1.3,1-2.5,2.2-3.3
	c2.5-1.7,6.8-1.8,9.8-1.6c0.9,0,1.8,0.1,2.6,0.2c0.2-1.5-0.4-3-1.5-3.9c-1.7-0.9-3.7-1.2-5.7-0.8c-0.7,0.1-1.4,0.3-2,0.6
	c-0.8,0.3-1.5,0.7-2.2,1.2c-0.8-0.5-1.4-1.4-1.5-2.4c-0.1-1.5,1-2.8,2.5-3.1c0.7-0.2,1.3-0.4,2-0.5c2.8-0.4,5.7-0.2,8.4,0.5
	c1.8,0.5,3.4,1.6,4.4,3.1c1,1.5,1.5,3.2,1.4,4.9c0.1,4.4,0,8.9,0,13.3c-1,0.2-2,0.3-3.1,0.4C732.1,256.1,729.5,256.2,727,256.2z
	 M727.1,252.3c1.6,0.1,3.2-0.1,4.8-0.4v-5.8c-0.8-0.1-1.5-0.2-2.3-0.2c-1.6-0.2-3.2,0-4.8,0.4c-1.2,0.4-1.9,1.5-1.8,2.7
	c0,0.4,0,0.9,0.2,1.3C723.8,251.8,725.7,252.3,727.1,252.3L727.1,252.3z"/>
<path class="st0" d="M512.3,256.2c-2.2,0-4.5-0.4-6.5-1.3c-0.8-0.4-1.5-1-2-1.6c-0.7-1.1-1.1-2.3-1.1-3.6c0-0.4,0-0.7,0-1.1
	c0-1.5,0.6-3,1.6-4.1c0.8-0.7,1.7-1.3,2.7-1.6c2.5-0.7,5.1-0.9,7.6-0.7c0.9,0,1.9,0.1,2.8,0.2c0.3-1.5-0.4-3-1.6-3.8
	c-1.3-0.9-3.9-1-5.4-0.8c-1.5,0.2-3,0.8-4.3,1.8c0,0-0.1,0-0.1,0c-0.6-0.4-1.1-1-1.3-1.7c-0.3-0.8-0.2-1.7,0.2-2.4
	c1.2-1.8,4.9-2.1,6.8-2.1c2.5-0.1,5.1,0.4,7.4,1.4c1.1,0.5,2,1.3,2.7,2.3c1,1.4,1.5,3.2,1.5,4.9c0.1,4.5,0,8.9,0,13.4
	c-1.1,0.2-2.2,0.4-3.4,0.5C517.4,256.1,514.8,256.2,512.3,256.2z M512.9,252.2c0.7,0,1.3,0,2,0c0.8-0.1,1.6-0.2,2.5-0.3v-5.8
	c-0.8-0.1-1.5-0.2-2.3-0.2c-1.6-0.1-4.9-0.2-6,1.2c-0.5,0.7-0.7,1.6-0.6,2.5c0,0.3,0.1,0.6,0.3,0.9c0.1,0.2,0.3,0.5,0.5,0.6
	C510.3,251.9,511.6,252.3,512.9,252.2L512.9,252.2z"/>
<path class="st0" d="M629.8,255.6c0-4.1,0-8.2,0-12.3c0.1-1.7-0.6-3.3-1.8-4.3c-1.4-1-3.7-0.9-5.3-0.6c-0.7,0.1-1.3,0.3-1.9,0.6
	v16.6h-5.9v-20.3c3.4-1.4,7.1-2.1,10.8-2c2.8,0,5.5,1,7.6,2.8c1.3,1.3,2.1,3,2.3,4.8c0.1,0.4,0.1,0.9,0.1,1.3c0,4.5,0,8.9,0,13.4
	L629.8,255.6z"/>
<path class="st1" d="M95.3,233.4c0.1,0.2,0.1,0.3,0.2,0.5l1.1,1.1v0.1c1.1,1.1,2,2.2,3.2,3.3v0.1l1.1,1.1v0.1l1.1,1.1v0.1
	c1.1,1.1,2,2.3,3.2,3.3v0.1l0.7,0.7c0-0.1,0-0.2,0.1-0.3s0.1,0,0.1,0c-1.4,4-2.8,7.9-4.1,11.9c-0.2,0.5-0.4,1-0.6,1.5
	c-0.7,1.4-1.7,2.7-2.8,3.8c-1.6,1.5-3.5,2.5-5.6,3c-0.6,0.1-1.1,0.2-1.7,0.3c-5.2,0.2-10.5,0.2-15.8,0.3l-2,0.1c0,0-0.1,0-0.1,0.1
	c-0.1-0.1-0.2-0.1-0.3-0.1c-2.6,0.1-5.2,0.1-7.8,0.1c-0.6,0-1.1,0.1-1.7,0.2c-0.9,0.3-1.7,0.8-2.3,1.5c-1.1,1.4-1.4,3.2-0.8,4.8
	c0.2,0.6,0.6,1.1,1,1.5c0.1,0.1,0.3,0.2,0.5,0.3c0,0,0,0.1,0,0.1c-0.4-0.3-0.7-0.6-1-0.9c-2.9-2.8-4.3-6.8-3.7-10.8
	c0.4-2.4,1.4-4.7,3-6.5c1.8-2.1,4.2-3.5,6.8-4.1c0.5-0.1,1-0.2,1.6-0.2c6.8-0.2,13.6-0.3,20.5-0.4c0.1-0.3,0.2-0.5,0.3-0.8
	C91.3,244.8,93.3,239.1,95.3,233.4z"/>
<path class="st0" d="M631.8,282.8h-5.4v-5h5.5v5H631.8z"/>
<path class="st2" d="M95.3,233.4c0.1-0.2,0.1-0.4,0.2-0.6c0-0.1,0-0.1,0.1-0.2l0.1,0.1c0.1-0.4,0.3-0.8,0.6-1.1c0.3-0.4,0.6-0.7,1-1
	c2.2-1.6,5.2-1.1,6.8,1c0.3,0.5,0.6,1,0.8,1.6c0.9,2.5,1.7,5,2.6,7.5c0,0,0,0.1,0,0.1c-0.4,1.3-0.9,2.5-1.3,3.8c-0.1,0-0.1,0-0.1,0
	c0,0,0,0.2-0.1,0.3l-0.7-0.7v-0.1c-1.1-1.1-2.1-2.3-3.2-3.3v-0.1l-1.1-1.1v-0.1l-1.1-1.1v-0.1c-1.1-1.1-2.1-2.3-3.2-3.3V235
	l-1.1-1.1C95.5,233.7,95.4,233.6,95.3,233.4z"/>
<path class="st0" d="M407.6,329.9c-5.1-0.1-10.2-1.1-15-3c-4.7-2-8.9-4.8-12.5-8.3c-4.5-4.5-7.7-10-9.4-16.1
	c-1.4-5.1-1.8-10.4-1.4-15.6c0.4-5.1,1.9-10.2,4.2-14.8c2.3-4.5,5.5-8.4,9.5-11.6c5.2-4.1,11.3-6.9,17.8-8c5.4-0.9,10.9-0.9,16.2,0
	c5.2,0.9,10.2,2.9,14.6,5.7c5.3,3.4,9.7,8.1,12.6,13.6c2.4,4.6,3.9,9.7,4.3,14.9c0.5,5.3,0,10.7-1.5,15.8c-1.4,5.1-3.9,9.8-7.3,13.8
	c-3.5,4.1-7.8,7.4-12.7,9.7c-4.9,2.3-10.2,3.6-15.6,3.8C410.2,329.9,408.9,330,407.6,329.9z M408.3,314c1.4,0,2.8-0.1,4.1-0.3
	c2.7-0.4,5.2-1.5,7.4-3.1c2.8-2.1,5-4.9,6.4-8.1c1.1-2.8,1.8-5.7,2-8.7c0.4-4.1,0-8.3-1.1-12.3c-0.9-3.3-2.6-6.2-5-8.6
	c-2.3-2.3-5.3-4-8.5-4.7c-2.6-0.6-5.3-0.7-8-0.2c-2,0.3-3.8,0.9-5.6,1.9c-2.5,1.4-4.6,3.3-6.3,5.6c-2.1,3.1-3.4,6.6-3.8,10.2
	c-0.5,3.3-0.5,6.6-0.1,9.9c0.4,3.6,1.6,7.1,3.5,10.2c1.5,2.2,3.4,4.1,5.6,5.5C401.8,313,405,314,408.3,314L408.3,314z"/>
<path class="st2" d="M63.6,275.5L63.6,275.5c-0.5-0.4-1-0.8-1.5-1.1c-0.1-0.1-0.1-0.1-0.2-0.2c0,0,0-0.1,0-0.2
	c-0.2-0.1-0.3-0.2-0.5-0.3c-0.4-0.4-0.8-0.9-1-1.5c-0.6-1.6-0.3-3.5,0.8-4.8c0.6-0.7,1.4-1.3,2.3-1.5c0.6-0.2,1.1-0.2,1.7-0.2
	c2.6,0,5.2-0.1,7.8-0.1c0.1,0,0.2,0,0.3,0.1c1.5,1.1,3,2.3,4.4,3.4c0,0.1,0,0.1,0,0.2c-0.2,0-0.4,0.1-0.5,0.2h-0.1
	c0,0,0,0.1-0.1,0.1c-0.3,0.1-0.5,0.2-0.8,0.4h-0.1l-0.1,0.1c-0.1,0-0.1,0-0.2,0c-0.7,0.4-1.3,0.6-2,1h-0.2c0,0,0,0-0.1,0.1
	c-0.3,0.1-0.5,0.3-0.8,0.4c0,0-0.1,0-0.1,0c0,0,0,0.1-0.1,0.1c-2.3,1-4.7,2.2-7,3.3c0,0-0.1,0-0.2,0l-0.1,0.1
	c-0.3,0.1-0.5,0.2-0.8,0.4h-0.1l-0.1,0.1c-0.3,0.1-0.5,0.2-0.7,0.3c0,0-0.1,0-0.1,0C63.7,275.5,63.7,275.5,63.6,275.5z"/>
<path class="st1" d="M124.3,319.5c0,0,0.1-0.1,0.1,0c0.5,0.2,1,0.3,1.5,0.4c0.7,0,1.5-0.1,2.2-0.3c1.9-0.7,3.1-2.6,3.1-4.6
	c0-0.4-0.1-0.9-0.2-1.3c-0.8-2.6-1.6-5.2-2.4-7.9v-0.2c-1.6-5.4-3.2-10.7-4.9-16.1c-0.1-0.4-0.2-0.8-0.3-1.2
	c-0.4-2.1-0.3-4.2,0.4-6.2c0.8-2.5,2.4-4.7,4.4-6.2c4.5-3.4,9-6.8,13.4-10.2c-0.4,0-0.8,0-1.2,0c0.4,0,0.7,0,1.1,0c0,0,0,0,0.1,0
	c0.1,0,0.1-0.1,0.1-0.1c2.1-1.5,4.2-3.2,6.3-4.8c2.2-1.5,2.8-4.6,1.3-6.8c-0.4-0.5-0.8-1-1.3-1.3c-0.5-0.3-1.1-0.6-1.7-0.7l-0.1-0.1
	c-0.2,0-0.4,0-0.6,0h-0.1c0,0,0.1,0,0.1,0c0.2,0,0.4,0,0.6,0c0.7,0.1,1.3,0.2,1.9,0.3c1.6,0.4,3.1,1,4.4,2c2,1.5,3.6,3.5,4.4,5.9
	c1.5,4.1,0.8,8.6-1.9,12c-0.7,0.9-1.5,1.7-2.4,2.4c-5.2,4-10.4,7.9-15.6,11.8c2,6.4,4,12.8,5.8,19.2c0.2,0.8,0.4,1.6,0.4,2.5
	c0.1,1.8-0.2,3.5-0.8,5.2c-1,2.6-2.9,4.8-5.3,6.3c-0.6,0.4-1.3,0.7-2,1c-0.7,0.3-1.4,0.5-2.1,0.6c-0.6,0.1-1.3,0.2-1.9,0.2
	c-0.6,0-1.2,0-1.8-0.1c-1.1-0.1-2.3-0.4-3.3-0.8C125.5,320.1,124.9,319.8,124.3,319.5z"/>
<path class="st0" d="M749.1,317h-6v-5c-1.7,1.2-3.8,1.6-5.9,1.2c-1.9-0.3-3.7-1-5.2-2.2c-2.5-1.9-3.6-5-2.9-8.1
	c0.9-2.7,2.9-4.8,5.5-5.8c2-0.8,4.1-1,6.2-0.6c0.7,0.2,1.3,0.4,1.9,0.6l-1.5,4.5c-1.2-0.4-2.5-0.5-3.8-0.2c-1,0.4-1.9,1.1-2.3,2.2
	c-0.3,0.7-0.3,1.5,0,2.2c0.4,1,1.1,1.7,2,2.1c1.4,0.6,3.1,0.4,4.3-0.5c0.5-0.3,1-0.7,1.4-1.2V294h-18.6v23h-6.1v-5.1
	c-2,1.1-4.3,1.5-6.6,1.1c-2.1-0.3-4.1-1.2-5.7-2.6c-1.1-1-1.9-2.2-2.4-3.6c-1-3.2,0-6.6,2.5-8.8c2-1.7,4.5-2.6,7.1-2.5
	c1.2,0,2.5,0.1,3.7,0.5c0.3,0.1,0.6,0.2,0.9,0.4l-1.4,4.3c-1.1-0.5-2.3-0.7-3.5-0.5c-0.2,0-0.5,0.1-0.7,0.1l6.2,5.5V294h-16.8v-4.4
	h16.2l-11.6-5.5l3-4.7l11,7.6c0,0,0.1,0.1,0.1,0l-5.4-9.3l4.8-1.8l0.2,0c0,0,0,0.1,0.1,0.1c2,4.4,4,8.9,5.9,13.3l0.1,0.2h39.5v4.3
	c0,0,0,0-0.1,0c-5.3,0.2-10.8,0-16.1,0v3.6c1-0.8,2.3-1.3,3.6-1.3c2.1-0.1,4.2,0.3,6,1.3c1.6,0.9,2.9,2.2,3.8,3.8
	c1.1,2.1,1.2,4.5,0.4,6.8c-1,2.7-2.9,5-5.3,6.5c-0.5,0.3-1,0.7-1.6,0.9l-3.3-4.3c1.6-0.7,3-2,3.8-3.5c0.7-1.2,0.9-2.8,0.3-4.1
	c-0.4-0.9-1.2-1.6-2-2c-1.3-0.5-2.8-0.4-4,0.4c-0.7,0.4-1.3,0.9-1.8,1.5V317L749.1,317z M712.6,308.4c1,0.2,2.1,0,2.9-0.5
	c-1.8-1.7-3.7-3.4-5.5-5l-0.1-0.1l-0.1,0.1c-0.2,0.3-0.3,0.6-0.4,0.9c-0.2,0.6-0.1,1.2,0.1,1.8C709.9,307,711.1,308.1,712.6,308.4z"
	/>
<path class="st2" d="M140.4,265.4h-1h-0.8c0,0,0-0.1,0-0.1c-0.5,0-1.1,0-1.6,0c1.6-2.7,3.4-5.7,4.9-8.5c0.1-0.2,0.3-0.4,0.4-0.5
	c0.1-0.2,0.1-0.3,0.2-0.4c0.2-0.3,0.4-0.8,0.6-1.1c0.1-0.1,0.3-0.4,0.4-0.5s0.1-0.3,0.2-0.4c0.1-0.3,0.5-0.9,0.6-1.1
	s0.3-0.6,0.5-0.9l0.1-0.1c0,0,0-0.1,0.1-0.1c0.2,0,0.3,0,0.5,0.1h0.1c0.2,0,0.4,0,0.6,0l0.1,0.1c0.6,0.1,1.2,0.3,1.7,0.7
	c2.2,1.5,2.9,4.5,1.4,6.7c-0.3,0.5-0.8,1-1.3,1.3c-2.1,1.6-4.2,3.2-6.3,4.8c0,0-0.1,0.1-0.2,0.1c0,0,0,0-0.1,0
	C141.2,265.4,140.8,265.4,140.4,265.4z"/>
<path class="st0" d="M563.8,317h-5.9v-23h-6.1v23c0,0-0.1,0-0.1,0c-2,0.1-4,0-6,0v-13.4h-6.7c-0.5,0-0.9,0.2-1.1,0.6
	c-0.1,0.2-0.2,0.5-0.2,0.7c0,1,0,1.9,0,2.9c0,1-0.6,1.8-1.6,2.1c-0.8,0.1-1.7-0.1-2.3-0.6c-0.7-0.5-1.3-1-1.9-1.6
	c-1.3-1.3-2.4-2.9-3.3-4.5c-0.6-0.9-0.7-2-0.4-3c0.3-0.6,0.9-1,1.6-1.1c0.2,0,0.4,0,0.5,0c5.1,0,10.2,0,15.3,0v-5h-33.4v4.6
	c0.7-0.8,1.6-1.3,2.6-1.5c2.1-0.5,4.3-0.3,6.3,0.4c1.5,0.6,2.7,1.5,3.7,2.7c2,2.6,1.5,5.9,0.3,8.7c-0.5,1.2-1,2.4-1.6,3.5
	s-1.3,2.2-2,3.3l-4.8-3.6c1.3-1.4,2.3-3.1,2.9-4.9c0.4-1.1,0.5-2.3,0.4-3.5c-0.3-1.4-1.6-2.3-3-2.1c-1,0.1-2,0.5-2.8,1
	c-0.8,0.5-1.4,1.2-2,1.9V317h-6.1v-8.1c-1.1,1-2.5,1.5-4,1.5c-2.1,0.2-4.2-0.4-5.9-1.6c-1.4-1-2.4-2.3-2.9-3.9
	c-0.3-0.9-0.4-1.9-0.4-2.8v-8.1h-4.7v23h-6v-23H479v-4.4h3c-0.4-1.2-0.6-2.5-0.5-3.8c0.3-3,2.5-5.2,5.1-6.6c2.9-1.5,6.2-2.1,9.4-1.6
	c2.4,0.4,4.6,1.5,6.5,3c2.9,2.3,5.2,5.3,6.9,8.6h-5.4c-0.9-1.6-2-3-3.3-4.2c-0.8-0.7-1.7-1.4-2.6-1.9c-1.7-0.9-3.7-1.3-5.6-0.9
	c-1.6,0.3-3,1-4.1,2.2c-1.1,1.4-0.7,3.6-0.1,5.1h70.6L547.3,279c0,0,0.1,0,0.1-0.1c1.5-1,2.9-2.1,4.4-3.1l12.6,13.7h3.1v4.4h-3.6
	L563.8,317L563.8,317z M501.4,305.7c0.7,0.1,1.3,0,1.9-0.3c1.3-0.7,2.3-1.8,3-3.1V294h-7.1c0,2.7,0,5.5,0,8.2c0,0.4,0.1,0.8,0.1,1.2
	C499.7,304.4,500.4,305.2,501.4,305.7L501.4,305.7z"/>
<path class="st0" d="M90.6,319.5h-0.1c-0.8,0.3-1.6,0.4-2.4,0.3c-2.6-0.3-4.5-2.7-4.3-5.3c0-0.4,0.1-0.7,0.3-1.1
	c0.8-2.5,1.5-5.1,2.3-7.7h0.1c4.6-3.2,9.2-6.4,13.8-9.6c3-2.2,6.9-2.9,10.5-1.9c1.5,0.4,2.9,1.1,4.1,2c4.5,3.1,9.1,6.3,13.6,9.4
	l0.1,0c0.8,2.7,1.6,5.3,2.4,7.9c0.1,0.4,0.2,0.9,0.2,1.3c0,2-1.2,3.8-3.1,4.6c-0.7,0.2-1.4,0.3-2.2,0.3c-0.5,0-1-0.2-1.5-0.4
	c0,0-0.1,0-0.1,0s-0.4-0.2-0.5-0.3c-3.2-2.2-6.3-4.4-9.5-6.6c0,3.6,0,7.2,0,10.8c-0.1,3.5-3,6.4-6.5,6.6c-1.4,0.1-2.8-0.3-4-1
	c-2-1.2-3.2-3.3-3.3-5.5c-0.1-3.6,0-7.3,0-10.9c-3.2,2.2-6.3,4.4-9.5,6.6L90.6,319.5z"/>
<path class="st0" d="M670.7,317.8c0,0-0.1,0-0.1-0.1c-4.4-5.9-8.9-11.7-13.3-17.6l4.5-3.2c0.6,1.5,1.7,2.9,3,3.8
	c0.5,0.4,1.1,0.4,1.6,0.2c0.5-0.4,0.9-1.1,0.9-1.7c0.1-1.7,0-3.6,0-5.3h-14.5v8.5h-9.6c-1.2-0.1-2.3,0.4-3.1,1.2
	c-1.1,1.2-1.4,2.8-0.8,4.3c0.6,1.6,1.7,3,3.2,3.8c2.1,0.9,4.5,1,6.6,0.1c1.3-0.4,2.5-1.2,3.4-2.2l4.4,3.2c-0.9,1.1-2,1.9-3.3,2.5
	c-1.4,0.7-3,1.2-4.6,1.4c-2.8,0.5-5.7,0.3-8.4-0.5c-3-1.1-5.5-3.3-6.9-6.1c-0.9-1.9-1.1-4.1-0.5-6.2c1.2-3.6,4.6-6.1,8.4-6.2
	c1.7,0,3.4,0,5.1,0v-3.8h-18.3v23h-6.1v-10.3h-7.3c0,0.9,0,1.8,0,2.7c0.1,0.8-0.5,1.6-1.3,1.9c-1,0-2-0.4-2.7-1.1
	c-1.1-0.8-2.2-1.8-3.2-2.8c-0.9-0.8-2.4-2.4-2.5-3.6c0-0.6,0.4-1.1,0.9-1.3c0.2-0.1,0.3-0.1,0.5-0.1h2.3v-8.4h-7.4v23h-6v-8.4
	c-1,0.7-2.1,1.3-3.3,1.5c-2.7,0.5-5.5,0-7.8-1.5c-2-1.2-3.3-3.2-3.5-5.5c0-0.2,0-0.4,0-0.6c0-2.9,0-5.7,0-8.6h-2.1v-4.3h17.5
	L585,279c0,0,0.1,0,0.1-0.1c1.5-1,2.9-2.1,4.4-3.1l12.6,13.8h21.2L611.8,279c0.1,0,0.1-0.1,0.1-0.1c1.5-1,2.9-2.1,4.4-3.1l12.6,13.7
	h61.6v4.4H687v23h-6.1v-11.5h-4.7l-2.1-4.7h6.8V294h-7.5c0,2.1,0.1,4.2,0,6.3c0,2-1.1,3.8-2.8,4.9c-0.6,0.3-1.3,0.4-2,0.3
	c-0.3,0-0.5-0.1-0.8-0.1c-0.1,0-0.1,0-0.1,0l7.6,9.3L670.7,317.8L670.7,317.8z M589.8,305.6c0.4,0.1,0.8,0.1,1.2,0
	c1.8-0.3,3.5-1.2,4.6-2.6v-9.1h-8.5v8.6c0,0.7,0.3,1.4,0.8,1.9C588.3,305,589.1,305.4,589.8,305.6L589.8,305.6z M622.4,302
	L622.4,302l0.1-8.1h-7.3v8.1H622.4z"/>
</svg>
